<svg width="30" height="24" viewBox="0 0 30 24" fill="none" xmlns="http://www.w3.org/2000/svg">
<path d="M29.3145 3.747C30 6.42 30 12 30 12C30 12 30 17.58 29.3145 20.253C28.9335 21.7305 27.819 22.893 26.4075 23.286C23.844 24 15 24 15 24C15 24 6.1605 24 3.5925 23.286C2.175 22.887 1.062 21.726 0.6855 20.253C4.47035e-08 17.58 0 12 0 12C0 12 4.47035e-08 6.42 0.6855 3.747C1.0665 2.2695 2.181 1.107 3.5925 0.714C6.1605 -2.68221e-07 15 0 15 0C15 0 23.844 -2.68221e-07 26.4075 0.714C27.825 1.113 28.938 2.274 29.3145 3.747ZM12 17.25L21 12L12 6.75V17.25Z" fill="#D2D5DD"/>
</svg>
